# xmcd
#
# Track frame offsets:
#	150
#	20175
#	39243
#	56603
#	74023
#	91800
#	118600
#	134150
#
# Disc length: 1988 seconds
#
# Revision: 2
# Processed by: cddbd v1.5.2PL0 Copyright (c) Steve Scherf et al.
# Submitted via: EasyCDDAExtractor 16.0.6.1
#
DISCID=7407c208
DTITLE=Clarence Carter - Touch Of Blues
DYEAR=1988
DGENRE=Blues
TTITLE0=I'm Not Just Good, I'm The Best
TTITLE1=All Night, All Day
TTITLE2=Rock Me Baby
TTITLE3=Kiss You All Over
TTITLE4=Why Do I Stay Here (And Take This Shit From You)
TTITLE5=Stormy Monday Blues
TTITLE6=It's A Man Down There
TTITLE7=Dance To The Blues
EXTD=
EXTT0=
EXTT1=
EXTT2=
EXTT3=
EXTT4=
EXTT5=
EXTT6=
EXTT7=
PLAYORDER=
